<?xml version="1.0" encoding="UTF-8" standalone="no"?>
<svg
   width="8mm"
   height="8mm"
   viewBox="0 0 296 296"
   version="1.1"
   id="svg837"
   sodipodi:docname="b_silk.svg"
   inkscape:version="1.2.2 (732a01da63, 2022-12-09)"
   xmlns:inkscape="http://www.inkscape.org/namespaces/inkscape"
   xmlns:sodipodi="http://sodipodi.sourceforge.net/DTD/sodipodi-0.dtd"
   xmlns="http://www.w3.org/2000/svg"
   xmlns:svg="http://www.w3.org/2000/svg">
  <sodipodi:namedview
     id="namedview839"
     pagecolor="#ffffff"
     bordercolor="#000000"
     borderopacity="0.25"
     inkscape:showpageshadow="2"
     inkscape:pageopacity="0.0"
     inkscape:pagecheckerboard="0"
     inkscape:deskcolor="#d1d1d1"
     inkscape:document-units="mm"
     showgrid="false"
     inkscape:zoom="27.682031"
     inkscape:cx="15.154235"
     inkscape:cy="15.136172"
     inkscape:window-width="1920"
     inkscape:window-height="1017"
     inkscape:window-x="-8"
     inkscape:window-y="-8"
     inkscape:window-maximized="1"
     inkscape:current-layer="svg837" />
  <defs
     id="defs5">
    <rect
       id="p"
       width="8"
       height="8" />
  </defs>
  <g
     fill="#000000"
     id="g833">
    <path
       id="use831"
       d="m 256,248 h 8 v 8 h -8 z m 0,-8 h 8 v 8 h -8 z m 0,-8 h 8 v 8 h -8 z m 0,-16 h 8 v 8 h -8 z m 0,-40 h 8 v 8 h -8 z m 0,-24 h 8 v 8 h -8 z m 0,-8 h 8 v 8 h -8 z m 0,-8 h 8 v 8 h -8 z m 0,-8 h 8 v 8 h -8 z m 0,-8 h 8 v 8 h -8 z m 0,-24 h 8 v 8 h -8 z m 0,-16 h 8 v 8 h -8 z m 0,-8 h 8 v 8 h -8 z m 0,-8 h 8 v 8 h -8 z m 0,-8 h 8 v 8 h -8 z m 0,-8 h 8 v 8 h -8 z m 0,-8 h 8 v 8 h -8 z m 0,-8 h 8 v 8 h -8 z m -8,208 h 8 v 8 h -8 z m 0,-24 h 8 v 8 h -8 z m 0,-24 h 8 v 8 h -8 z m 0,-24 h 8 v 8 h -8 z m 0,-32 h 8 v 8 h -8 z m 0,-32 h 8 v 8 h -8 z m 0,-24 h 8 v 8 h -8 z m 0,-48 h 8 v 8 h -8 z m -8,216 h 8 v 8 h -8 z m 0,-8 h 8 v 8 h -8 z m 0,-48 h 8 v 8 h -8 z m 0,-8 h 8 v 8 h -8 z m 0,-16 h 8 v 8 h -8 z m 0,-16 h 8 v 8 h -8 z m 0,-8 h 8 v 8 h -8 z m 0,-8 h 8 v 8 h -8 z m 0,-24 h 8 v 8 h -8 z m 0,-8 h 8 v 8 h -8 z m 0,-24 h 8 v 8 h -8 z m 0,-16 h 8 v 8 h -8 z m 0,-8 h 8 v 8 h -8 z m 0,-8 h 8 v 8 h -8 z m 0,-16 h 8 v 8 h -8 z m -8,216 h 8 v 8 h -8 z m 0,-24 h 8 v 8 h -8 z m 0,-16 h 8 v 8 h -8 z m 0,-8 h 8 v 8 h -8 z m 0,-8 h 8 v 8 h -8 z m 0,-8 h 8 v 8 h -8 z m 0,-8 h 8 v 8 h -8 z m 0,-16 h 8 v 8 h -8 z m 0,-24 h 8 v 8 h -8 z m 0,-16 h 8 v 8 h -8 z m 0,-40 h 8 v 8 h -8 z m 0,-16 h 8 v 8 h -8 z m 0,-8 h 8 v 8 h -8 z m 0,-8 h 8 v 8 h -8 z m 0,-16 h 8 v 8 h -8 z m -8,216 h 8 v 8 h -8 z m 0,-8 h 8 v 8 h -8 z m 0,-16 h 8 v 8 h -8 z m 0,-8 h 8 v 8 h -8 z m 0,-8 h 8 v 8 h -8 z m 0,-8 h 8 v 8 h -8 z m 0,-8 h 8 v 8 h -8 z m 0,-8 h 8 v 8 h -8 z m 0,-8 h 8 v 8 h -8 z m 0,-8 h 8 v 8 h -8 z m 0,-24 h 8 v 8 h -8 z m 0,-8 h 8 v 8 h -8 z m 0,-16 h 8 v 8 h -8 z m 0,-8 h 8 v 8 h -8 z m 0,-8 h 8 v 8 h -8 z m 0,-24 h 8 v 8 h -8 z m 0,-16 h 8 v 8 h -8 z m 0,-8 h 8 v 8 h -8 z m 0,-8 h 8 v 8 h -8 z m 0,-16 h 8 v 8 h -8 z m -8,208 h 8 v 8 h -8 z m 0,-16 h 8 v 8 h -8 z m 0,-32 h 8 v 8 h -8 z m 0,-8 h 8 v 8 h -8 z m 0,-24 h 8 v 8 h -8 z m 0,-16 h 8 v 8 h -8 z m 0,-8 h 8 v 8 h -8 z m 0,-24 h 8 v 8 h -8 z m 0,-8 h 8 v 8 h -8 z m 0,-24 h 8 v 8 h -8 z m 0,-48 h 8 v 8 h -8 z m -8,192 h 8 v 8 h -8 z m 0,-16 h 8 v 8 h -8 z m 0,-16 h 8 v 8 h -8 z m 0,-16 h 8 v 8 h -8 z m 0,-32 h 8 v 8 h -8 z m 0,-8 h 8 v 8 h -8 z m 0,-8 h 8 v 8 h -8 z m 0,-16 h 8 v 8 h -8 z m 0,-16 h 8 v 8 h -8 z m 0,-16 h 8 v 8 h -8 z m 0,-8 h 8 v 8 h -8 z m 0,-8 h 8 v 8 h -8 z m 0,-8 h 8 v 8 h -8 z m 0,-8 h 8 v 8 h -8 z m 0,-8 h 8 v 8 h -8 z m 0,-8 h 8 v 8 h -8 z m -8,216 h 8 v 8 h -8 z m 0,-8 h 8 v 8 h -8 z m 0,-8 h 8 v 8 h -8 z m 0,-8 h 8 v 8 h -8 z m 0,-32 h 8 v 8 h -8 z m 0,-8 h 8 v 8 h -8 z m 0,-8 h 8 v 8 h -8 z m 0,-24 h 8 v 8 h -8 z m 0,-8 h 8 v 8 h -8 z m 0,-8 h 8 v 8 h -8 z m 0,-16 h 8 v 8 h -8 z m -8,136 h 8 v 8 h -8 z m 0,-24 h 8 v 8 h -8 z m 0,-8 h 8 v 8 h -8 z m 0,-8 h 8 v 8 h -8 z m 0,-8 h 8 v 8 h -8 z m 0,-8 h 8 v 8 h -8 z m 0,-8 h 8 v 8 h -8 z m 0,-16 h 8 v 8 h -8 z m 0,-8 h 8 v 8 h -8 z m 0,-8 h 8 v 8 h -8 z m 0,-16 h 8 v 8 h -8 z m 0,-16 h 8 v 8 h -8 z m 0,-32 h 8 v 8 h -8 z m 0,-16 h 8 v 8 h -8 z m 0,-24 h 8 v 8 h -8 z m 0,-16 h 8 v 8 h -8 z m -8,216 h 8 v 8 h -8 z m 0,-16 h 8 v 8 h -8 z m 0,-16 h 8 v 8 h -8 z m 0,-16 h 8 v 8 h -8 z m 0,-32 h 8 v 8 h -8 z m 0,-8 h 8 v 8 h -8 z m 0,-16 h 8 v 8 h -8 z m 0,-8 h 8 v 8 h -8 z m 0,-40 h 8 v 8 h -8 z m 0,-8 h 8 v 8 h -8 z m 0,-8 h 8 v 8 h -8 z m 0,-24 h 8 v 8 h -8 z m 0,-8 h 8 v 8 h -8 z m 0,-8 h 8 v 8 h -8 z m 0,-8 h 8 v 8 h -8 z m -8,192 h 8 v 8 h -8 z m 0,-32 h 8 v 8 h -8 z m 0,-8 h 8 v 8 h -8 z m 0,-24 h 8 v 8 h -8 z m 0,-24 h 8 v 8 h -8 z m 0,-8 h 8 v 8 h -8 z m 0,-16 h 8 v 8 h -8 z m 0,-16 h 8 v 8 h -8 z m 0,-8 h 8 v 8 h -8 z m 0,-8 h 8 v 8 h -8 z m 0,-8 h 8 v 8 h -8 z m 0,-8 h 8 v 8 h -8 z m 0,-8 h 8 v 8 h -8 z m -8,176 h 8 v 8 h -8 z m 0,-8 h 8 v 8 h -8 z m 0,-16 h 8 v 8 h -8 z m 0,-16 h 8 v 8 h -8 z m 0,-8 h 8 v 8 h -8 z m 0,-56 h 8 v 8 h -8 z m 0,-16 h 8 v 8 h -8 z m 0,-16 h 8 v 8 h -8 z m 0,-8 h 8 v 8 h -8 z m 0,-32 h 8 v 8 h -8 z m 0,-8 h 8 v 8 h -8 z m 0,-24 h 8 v 8 h -8 z m -8,208 h 8 v 8 h -8 z m 0,-8 h 8 v 8 h -8 z m 0,-8 h 8 v 8 h -8 z m 0,-48 h 8 v 8 h -8 z m 0,-40 h 8 v 8 h -8 z m 0,-8 h 8 v 8 h -8 z m 0,-32 h 8 v 8 h -8 z m 0,-8 h 8 v 8 h -8 z m 0,-8 h 8 v 8 h -8 z m 0,-24 h 8 v 8 h -8 z m 0,-16 h 8 v 8 h -8 z m -8,216 h 8 v 8 h -8 z m 0,-8 h 8 v 8 h -8 z m 0,-8 h 8 v 8 h -8 z m 0,-8 h 8 v 8 h -8 z m 0,-8 h 8 v 8 h -8 z m 0,-8 h 8 v 8 h -8 z m 0,-8 h 8 v 8 h -8 z m 0,-8 h 8 v 8 h -8 z m 0,-16 h 8 v 8 h -8 z m 0,-8 h 8 v 8 h -8 z m 0,-8 h 8 v 8 h -8 z m 0,-16 h 8 v 8 h -8 z m 0,-8 h 8 v 8 h -8 z m 0,-8 h 8 v 8 h -8 z m 0,-16 h 8 v 8 h -8 z m 0,-8 h 8 v 8 h -8 z m 0,-8 h 8 v 8 h -8 z m 0,-8 h 8 v 8 h -8 z m 0,-40 h 8 v 8 h -8 z m 0,-8 h 8 v 8 h -8 z m -8,208 h 8 v 8 h -8 z m 0,-40 h 8 v 8 h -8 z m 0,-16 h 8 v 8 h -8 z m 0,-16 h 8 v 8 h -8 z m 0,-40 h 8 v 8 h -8 z m 0,-8 h 8 v 8 h -8 z m 0,-32 h 8 v 8 h -8 z m 0,-8 h 8 v 8 h -8 z m 0,-8 h 8 v 8 h -8 z m 0,-8 h 8 v 8 h -8 z m 0,-8 h 8 v 8 h -8 z m 0,-8 h 8 v 8 h -8 z m 0,-16 h 8 v 8 h -8 z m 0,-8 h 8 v 8 h -8 z m 0,-8 h 8 v 8 h -8 z m -8,224 h 8 v 8 h -8 z m 0,-24 h 8 v 8 h -8 z m 0,-32 h 8 v 8 h -8 z m 0,-16 h 8 v 8 h -8 z m 0,-16 h 8 v 8 h -8 z m 0,-8 h 8 v 8 h -8 z m 0,-72 h 8 v 8 h -8 z m 0,-32 h 8 v 8 h -8 z m 0,-8 h 8 v 8 h -8 z m 0,-8 h 8 v 8 h -8 z m 0,-8 h 8 v 8 h -8 z m -8,200 h 8 v 8 h -8 z m 0,-8 h 8 v 8 h -8 z m 0,-24 h 8 v 8 h -8 z m 0,-8 h 8 v 8 h -8 z m 0,-16 h 8 v 8 h -8 z m 0,-16 h 8 v 8 h -8 z m 0,-8 h 8 v 8 h -8 z m 0,-16 h 8 v 8 h -8 z m 0,-24 h 8 v 8 h -8 z m 0,-16 h 8 v 8 h -8 z m 0,-8 h 8 v 8 h -8 z m 0,-8 h 8 v 8 h -8 z m 0,-16 h 8 v 8 h -8 z m 0,-24 h 8 v 8 h -8 z m -8,216 h 8 v 8 h -8 z m 0,-8 h 8 v 8 h -8 z m 0,-16 h 8 v 8 h -8 z m 0,-24 h 8 v 8 h -8 z m 0,-16 h 8 v 8 h -8 z m 0,-8 h 8 v 8 h -8 z m 0,-16 h 8 v 8 h -8 z m 0,-8 h 8 v 8 h -8 z m 0,-88 h 8 v 8 h -8 z m 0,-8 h 8 v 8 h -8 z m 0,-8 h 8 v 8 h -8 z m 0,-8 h 8 v 8 h -8 z m 0,-8 h 8 v 8 h -8 z m 0,-8 h 8 v 8 h -8 z m -8,224 h 8 v 8 h -8 z m 0,-24 h 8 v 8 h -8 z m 0,-16 h 8 v 8 h -8 z m 0,-16 h 8 v 8 h -8 z m 0,-16 h 8 v 8 h -8 z m 0,-32 h 8 v 8 h -8 z m 0,-16 h 8 v 8 h -8 z m 0,-8 h 8 v 8 h -8 z m 0,-24 h 8 v 8 h -8 z m 0,-24 h 8 v 8 h -8 z m 0,-16 h 8 v 8 h -8 z m 0,-8 h 8 v 8 h -8 z m 0,-24 h 8 v 8 h -8 z m -8,216 h 8 v 8 h -8 z m 0,-16 h 8 v 8 h -8 z m 0,-8 h 8 v 8 h -8 z m 0,-16 h 8 v 8 h -8 z m 0,-16 h 8 v 8 h -8 z m 0,-16 h 8 v 8 h -8 z m 0,-8 h 8 v 8 h -8 z m 0,-8 h 8 v 8 h -8 z m 0,-32 h 8 v 8 h -8 z m 0,-16 h 8 v 8 h -8 z m 0,-16 h 8 v 8 h -8 z m 0,-8 h 8 v 8 h -8 z m 0,-16 h 8 v 8 h -8 z m 0,-24 h 8 v 8 h -8 z m 0,-16 h 8 v 8 h -8 z m -8,224 h 8 v 8 h -8 z m 0,-8 h 8 v 8 h -8 z m 0,-16 h 8 v 8 h -8 z m 0,-8 h 8 v 8 h -8 z m 0,-24 h 8 v 8 h -8 z m 0,-16 h 8 v 8 h -8 z m 0,-16 h 8 v 8 h -8 z m 0,-8 h 8 v 8 h -8 z m 0,-8 h 8 v 8 h -8 z m 0,-8 h 8 v 8 h -8 z m 0,-32 h 8 v 8 h -8 z m 0,-24 h 8 v 8 h -8 z m 0,-8 h 8 v 8 h -8 z m 0,-48 h 8 v 8 h -8 z m -8,152 h 8 v 8 h -8 z m 0,-24 h 8 v 8 h -8 z m 0,-16 h 8 v 8 h -8 z m 0,-16 h 8 v 8 h -8 z m 0,-8 h 8 v 8 h -8 z m 0,-8 h 8 v 8 h -8 z m 0,-8 h 8 v 8 h -8 z m -8,152 h 8 v 8 h -8 z m 0,-8 h 8 v 8 h -8 z m 0,-8 h 8 v 8 h -8 z m 0,-8 h 8 v 8 h -8 z m 0,-8 h 8 v 8 h -8 z m 0,-8 h 8 v 8 h -8 z m 0,-8 h 8 v 8 h -8 z m 0,-16 h 8 v 8 h -8 z m 0,-16 h 8 v 8 h -8 z m 0,-16 h 8 v 8 h -8 z m 0,-16 h 8 v 8 h -8 z m 0,-16 h 8 v 8 h -8 z m 0,-16 h 8 v 8 h -8 z m 0,-16 h 8 v 8 h -8 z m 0,-16 h 8 v 8 h -8 z m 0,-8 h 8 v 8 h -8 z m 0,-8 h 8 v 8 h -8 z m 0,-8 h 8 v 8 h -8 z m 0,-8 h 8 v 8 h -8 z m 0,-8 h 8 v 8 h -8 z m 0,-8 h 8 v 8 h -8 z m -8,224 h 8 v 8 h -8 z m 0,-48 h 8 v 8 h -8 z m 0,-16 h 8 v 8 h -8 z m 0,-16 h 8 v 8 h -8 z m 0,-48 h 8 v 8 h -8 z m 0,-16 h 8 v 8 h -8 z m 0,-8 h 8 v 8 h -8 z m 0,-24 h 8 v 8 h -8 z m 0,-48 h 8 v 8 h -8 z m -8,224 h 8 v 8 h -8 z m 0,-16 h 8 v 8 h -8 z m 0,-8 h 8 v 8 h -8 z m 0,-8 h 8 v 8 h -8 z m 0,-16 h 8 v 8 h -8 z m 0,-64 h 8 v 8 h -8 z m 0,-8 h 8 v 8 h -8 z m 0,-32 h 8 v 8 h -8 z m 0,-8 h 8 v 8 h -8 z m 0,-16 h 8 v 8 h -8 z m 0,-16 h 8 v 8 h -8 z m 0,-8 h 8 v 8 h -8 z m 0,-8 h 8 v 8 h -8 z m 0,-16 h 8 v 8 h -8 z m -8,224 h 8 v 8 h -8 z m 0,-16 h 8 v 8 h -8 z m 0,-8 h 8 v 8 h -8 z m 0,-8 h 8 v 8 h -8 z m 0,-16 h 8 v 8 h -8 z m 0,-16 h 8 v 8 h -8 z m 0,-8 h 8 v 8 h -8 z m 0,-8 h 8 v 8 h -8 z m 0,-16 h 8 v 8 h -8 z m 0,-8 h 8 v 8 h -8 z m 0,-16 h 8 v 8 h -8 z m 0,-16 h 8 v 8 h -8 z m 0,-16 h 8 v 8 h -8 z m 0,-8 h 8 v 8 h -8 z m 0,-16 h 8 v 8 h -8 z m 0,-16 h 8 v 8 h -8 z m 0,-8 h 8 v 8 h -8 z m 0,-8 h 8 v 8 h -8 z m 0,-16 h 8 v 8 h -8 z m -8,224 h 8 v 8 h -8 z m 0,-16 h 8 v 8 h -8 z m 0,-8 h 8 v 8 h -8 z m 0,-8 h 8 v 8 h -8 z m 0,-16 h 8 v 8 h -8 z m 0,-48 h 8 v 8 h -8 z m 0,-24 h 8 v 8 h -8 z m 0,-8 h 8 v 8 h -8 z m 0,-8 h 8 v 8 h -8 z m 0,-40 h 8 v 8 h -8 z m 0,-16 h 8 v 8 h -8 z m 0,-8 h 8 v 8 h -8 z m 0,-8 h 8 v 8 h -8 z m 0,-16 h 8 v 8 h -8 z m -8,224 h 8 v 8 h -8 z m 0,-48 h 8 v 8 h -8 z m 0,-40 h 8 v 8 h -8 z m 0,-8 h 8 v 8 h -8 z m 0,-8 h 8 v 8 h -8 z m 0,-8 h 8 v 8 h -8 z m 0,-16 h 8 v 8 h -8 z m 0,-8 h 8 v 8 h -8 z m 0,-24 h 8 v 8 h -8 z m 0,-16 h 8 v 8 h -8 z m 0,-48 h 8 v 8 h -8 z m -8,224 h 8 v 8 h -8 z m 0,-8 h 8 v 8 h -8 z m 0,-8 h 8 v 8 h -8 z m 0,-8 h 8 v 8 h -8 z m 0,-8 h 8 v 8 h -8 z m 0,-8 h 8 v 8 h -8 z m 0,-8 h 8 v 8 h -8 z m 0,-48 h 8 v 8 h -8 z m 0,-8 h 8 v 8 h -8 z m 0,-8 h 8 v 8 h -8 z m 0,-8 h 8 v 8 h -8 z m 0,-8 h 8 v 8 h -8 z m 0,-16 h 8 v 8 h -8 z m 0,-16 h 8 v 8 h -8 z m 0,-16 h 8 v 8 h -8 z m 0,-8 h 8 v 8 h -8 z m 0,-8 h 8 v 8 h -8 z m 0,-8 h 8 v 8 h -8 z m 0,-8 h 8 v 8 h -8 z m 0,-8 h 8 v 8 h -8 z m 0,-8 h 8 v 8 h -8 z" />
  </g>
</svg>
