<?xml version="1.0" encoding="UTF-8" standalone="no"?>
<svg
   width="50mm"
   height="50mm"
   viewBox="0 0 500 500"
   fill="none"
   version="1.1"
   id="svg100"
   sodipodi:docname="edgecuts.svg"
   xml:space="preserve"
   inkscape:version="1.2.2 (732a01da63, 2022-12-09)"
   xmlns:inkscape="http://www.inkscape.org/namespaces/inkscape"
   xmlns:sodipodi="http://sodipodi.sourceforge.net/DTD/sodipodi-0.dtd"
   xmlns="http://www.w3.org/2000/svg"
   xmlns:svg="http://www.w3.org/2000/svg"><sodipodi:namedview
     id="namedview102"
     pagecolor="#000000"
     bordercolor="#000000"
     borderopacity="0.25"
     inkscape:showpageshadow="2"
     inkscape:pageopacity="0"
     inkscape:pagecheckerboard="0"
     inkscape:deskcolor="#d1d1d1"
     showgrid="false"
     inkscape:zoom="1.888"
     inkscape:cx="135.85805"
     inkscape:cy="208.68644"
     inkscape:window-width="1920"
     inkscape:window-height="1017"
     inkscape:window-x="-8"
     inkscape:window-y="-8"
     inkscape:window-maximized="1"
     inkscape:current-layer="layer1" /><g
     inkscape:groupmode="layer"
     id="layer1"
     inkscape:label="Plane"
     style="display:inline"
     sodipodi:insensitive="true"><g
       style="display:inline;fill:none"
       id="g4496"
       transform="translate(0.07315922,0.0728493)"><path
         id="path1424-0"
         style="fill:#bfd600;fill-opacity:1;stroke:#bfd600;stroke-opacity:0.980392"
         d="M 51.392578,33.96875 C 46.87679,34.082907 42.9,35.349015 39.763672,38.140625 29.552408,49.067829 51.115955,29.51712 39.597656,38.287109 22.870673,53.175694 49.477184,94.153522 64.292969,113.0332 l 25.011719,29.78125 30.900392,31.89844 14.76758,15.24219 -18.28125,46.23437 -12.03125,-12.41992 c -2.222,-1.351 -7.668736,-3.1607 -11.673832,0.4043 l -8.246094,7.33789 -9.128906,8.12695 c -2.748497,2.446 -7.088733,8.30574 -2.460937,12.17774 4.627695,3.87099 21.069898,21.37268 28.712889,29.63867 l 0.0508,0.125 -45.457029,117.17969 c -0.476799,2.52699 -0.231642,8.93194 4.564453,14.33593 4.795996,5.403 8.560652,9.02611 9.84375,10.16211 l 6.289063,6.49219 c 0.792399,-0.88 3.218388,-3.81029 6.583984,-8.48828 3.365597,-4.678 32.591219,-48.63437 46.783199,-70.02734 l 58.33008,-89.24219 7.50977,-10.36328 0.47461,0.49023 -0.12891,0.11524 41.83985,43.18945 c 13.81298,12.93799 45.17868,42.11007 60.13867,55.28906 14.95998,13.17799 26.62875,19.92825 30.59375,21.65625 -3.524,25.31798 -10.62036,77.32618 -10.81836,82.82617 -0.199,5.499 4.36102,11.20029 6.66601,13.36328 l 6.57617,6.79102 45.8125,-69.39258 19.22071,-17.10742 75.58203,-38.66016 -6.57813,-6.78906 c -3.89799,-5.57999 -10.78809,-7.03155 -13.74609,-7.06055 l -86.06055,3.40235 c -1.78299,-6.824 -14.35883,-23.31599 -20.42382,-30.70899 l -52.48438,-62.10156 -41.83789,-43.18945 -0.58789,0.52343 -0.47656,-0.49218 11.02148,-5.60352 97.47656,-49.96484 c 23.30698,-11.98399 71.19946,-36.66902 76.31446,-39.54102 5.11599,-2.87099 8.34531,-4.97301 9.32031,-5.66601 l -6.28906,-6.492191 c -1.087,-1.310598 -4.57871,-5.177814 -9.84571,-10.162109 -5.26699,-4.984395 -11.91217,-5.692728 -14.57617,-5.423828 l -125.26367,34.785158 -0.13477,-0.0566 c -8.03499,-7.91699 -25.02789,-24.930532 -28.71289,-29.640628 -3.68499,-4.710195 -10.10551,-0.995225 -12.85351,1.451172 l -9.12891,8.126954 -8.24609,7.339842 c -4.005,3.565 -2.5242,8.90491 -1.2832,11.12891 L 239.9551,126.4766 190.50197,140.52934 175.7344,125.2852 144.834,93.388712 115.69924,67.277384 C 100.63061,54.635506 70.960994,33.474069 51.392578,33.96875 Z M 396.83984,389.75977 c -1.81576,-16.5311 -33.24215,7.41907 -18.4414,16.43164 l 15.5957,10.14453 c 1.837,1.099 5.82912,3.01821 10.91211,-2.05078 3.88,-3.869 1.2075,-7.47888 0.8125,-8.29688 z"
         sodipodi:nodetypes="sccccccccccccccccccscccccccccccccccccccccccccccsccccsccccccccscccccc"
         inkscape:label="path1424" /></g></g><defs
     id="defs98"><clipPath
       id="clip0_450_460"><rect
         width="500"
         height="500"
         fill="white"
         id="rect95" /></clipPath><clipPath
       id="clip0_450_460-3"><rect
         width="500"
         height="500"
         fill="white"
         id="rect95-4" /></clipPath></defs></svg>
